<?xml version="1.0" encoding="utf-8"?>
<svg version="1.1" xmlns:xlink="http://www.w3.org/1999/xlink" width="32px" height="24px" xmlns="http://www.w3.org/2000/svg">
  <defs>
    <linearGradient gradientUnits="userSpaceOnUse" x1="24.43717679944129" y1="71.16692442519724" x2="28.059818308875236" y2="-2.407670893906584" id="LinearGradient346">
      <stop id="Stop347" stop-color="#5d7cff" offset="0" />
      <stop id="Stop348" stop-color="#4516ff" offset="0.44" />
      <stop id="Stop349" stop-color="#7a66fe" offset="0.72" />
      <stop id="Stop350" stop-color="#35cfff" offset="1" />
      <stop id="Stop351" stop-color="#34ceff" offset="1" />
    </linearGradient>
    <pattern id="BGPattern" patternUnits="userSpaceOnUse" alignment="0 0" imageRepeat="None" />
    <mask fill="white" id="Clip352">
      <path d="M 15.433326407042955 0.4333381952002213  L 23.999989229094922 23.566661146577815  L 18.633324970922274 23.566661146577815  L 16.66665918687147 17.833330386294023  L 7.266663405475981 17.833330386294023  L 5.266664303051357 23.566661146577815  L 0 23.566661146577815  L 8.633329458799437 0.4333381952002213  L 15.433326407042955 0.4333381952002213  Z M 31.69998577342949 0.4333381952002213  L 31.69998577342949 23.566661146577815  L 26 23.566661146577815  L 26 0.4333381952002213  L 31.69998577342949 0.4333381952002213  Z M 12.199994524789929 4.8666695389080274  L 11.799994704304993 4.8666695389080274  L 8.733329413920671 13.63333227120242  L 15.19999317842678 13.63333227120242  L 12.199994524789929 4.8666695389080274  Z " fill-rule="evenodd" />
    </mask>
  </defs>
  <g transform="matrix(1 0 0 1 -176 -62 )">
    <path d="M 15.433326407042955 0.4333381952002213  L 23.999989229094922 23.566661146577815  L 18.633324970922274 23.566661146577815  L 16.66665918687147 17.833330386294023  L 7.266663405475981 17.833330386294023  L 5.266664303051357 23.566661146577815  L 0 23.566661146577815  L 8.633329458799437 0.4333381952002213  L 15.433326407042955 0.4333381952002213  Z M 31.69998577342949 0.4333381952002213  L 31.69998577342949 23.566661146577815  L 26 23.566661146577815  L 26 0.4333381952002213  L 31.69998577342949 0.4333381952002213  Z M 12.199994524789929 4.8666695389080274  L 11.799994704304993 4.8666695389080274  L 8.733329413920671 13.63333227120242  L 15.19999317842678 13.63333227120242  L 12.199994524789929 4.8666695389080274  Z " fill-rule="nonzero" fill="url(#LinearGradient346)" stroke="none" transform="matrix(1 0 0 1 176 62 )" class="fill" />
    <path d="M 15.433326407042955 0.4333381952002213  L 23.999989229094922 23.566661146577815  L 18.633324970922274 23.566661146577815  L 16.66665918687147 17.833330386294023  L 7.266663405475981 17.833330386294023  L 5.266664303051357 23.566661146577815  L 0 23.566661146577815  L 8.633329458799437 0.4333381952002213  L 15.433326407042955 0.4333381952002213  Z " stroke-width="0" stroke-dasharray="0" stroke="rgba(255, 255, 255, 0)" fill="none" transform="matrix(1 0 0 1 176 62 )" class="stroke" mask="url(#Clip352)" />
    <path d="M 31.69998577342949 0.4333381952002213  L 31.69998577342949 23.566661146577815  L 26 23.566661146577815  L 26 0.4333381952002213  L 31.69998577342949 0.4333381952002213  Z " stroke-width="0" stroke-dasharray="0" stroke="rgba(255, 255, 255, 0)" fill="none" transform="matrix(1 0 0 1 176 62 )" class="stroke" mask="url(#Clip352)" />
    <path d="M 12.199994524789929 4.8666695389080274  L 11.799994704304993 4.8666695389080274  L 8.733329413920671 13.63333227120242  L 15.19999317842678 13.63333227120242  L 12.199994524789929 4.8666695389080274  Z " stroke-width="0" stroke-dasharray="0" stroke="rgba(255, 255, 255, 0)" fill="none" transform="matrix(1 0 0 1 176 62 )" class="stroke" mask="url(#Clip352)" />
  </g>
</svg>